<svg version="1.1" xmlns="http://www.w3.org/2000/svg" xmlns:xlink="http://www.w3.org/1999/xlink">
<defs>
<symbol id="chatbot-logo" viewBox="0 0 97 61">

<path d="M89.6699 22.1108V25.0471C89.6699 28.2919 88.381 31.4038 86.0865 33.6982C83.7921 35.9926 80.6802 37.2816 77.4355 37.2816H39.2639C36.7537 37.2701 34.2794 37.8777 32.06 39.0505C29.8407 40.2234 27.9447 41.9253 26.54 44.0057C26.4079 44.2014 26.2757 44.3923 26.1387 44.5831L27.9739 37.2816H19.1651C15.9203 37.2816 12.8084 35.9926 10.514 33.6982C8.21957 31.4038 6.93058 28.2919 6.93058 25.0471V22.1108H0.113525V25.0471C0.113525 30.109 2.12434 34.9635 5.70363 38.5428C9.28291 42.1221 14.1375 44.1329 19.1993 44.1329C18.6631 46.2814 17.9071 48.3691 16.9433 50.3627C15.9975 52.3296 14.8599 54.1983 13.547 55.9416C13.2337 56.3499 13.0385 56.8363 12.9828 57.3479C12.9271 57.8595 13.0131 58.3766 13.2312 58.8427C13.4494 59.3087 13.7914 59.7059 14.2199 59.9909C14.6484 60.2759 15.1469 60.4377 15.6611 60.4586C16.0097 60.4582 16.3551 60.3918 16.679 60.2628C23.014 57.8074 28.4403 53.4626 32.2217 47.8179C33.0037 46.6737 34.0549 45.7391 35.2829 45.0965C36.5109 44.4539 37.878 44.123 39.2639 44.1329H77.4355C82.4973 44.1329 87.3519 42.1221 90.9312 38.5428C94.5104 34.9635 96.5212 30.109 96.5212 25.0471V22.1108H89.6699Z" fill="#03449E"/>
<path d="M67.5353 7.635V17.7945H55.0366C54.4058 17.8295 53.7748 17.7313 53.1845 17.5061C52.5943 17.281 52.0581 16.934 51.6109 16.4879C50.7472 15.4916 50.3065 14.1975 50.3826 12.8812C50.369 12.0077 50.5319 11.1405 50.8615 10.3316C51.1912 9.5226 51.6808 8.78852 52.3009 8.17332L55.3008 10.2483C54.6674 10.9734 54.3104 11.8989 54.2927 12.8616C54.2927 13.904 54.7429 14.4276 55.6483 14.4276H63.6252V7.635H67.5353ZM56.5145 5.85366C56.3763 5.71318 56.2679 5.54632 56.1956 5.36304C56.1233 5.17975 56.0886 4.98379 56.0936 4.78682C56.0879 4.58903 56.1223 4.39214 56.1946 4.20797C56.2669 4.02379 56.3757 3.85614 56.5145 3.71508C56.8053 3.44751 57.1861 3.29901 57.5813 3.29901C57.9765 3.29901 58.3573 3.44751 58.6482 3.71508C58.7869 3.85614 58.8957 4.02379 58.9681 4.20797C59.0404 4.39214 59.0747 4.58903 59.069 4.78682C59.0657 5.08125 58.9762 5.36826 58.8116 5.6124C58.6469 5.85654 58.4144 6.04711 58.1427 6.16059C57.871 6.27406 57.572 6.30547 57.2826 6.25092C56.9933 6.19638 56.7262 6.05827 56.5145 5.85366ZM59.9401 5.85366C59.802 5.71318 59.6935 5.54632 59.6212 5.36304C59.5489 5.17975 59.5142 4.98379 59.5193 4.78682C59.5193 4.39225 59.676 4.01385 59.955 3.73485C60.234 3.45584 60.6124 3.2991 61.007 3.2991C61.4016 3.2991 61.78 3.45584 62.059 3.73485C62.338 4.01385 62.4947 4.39225 62.4947 4.78682C62.5021 4.98365 62.469 5.17989 62.3974 5.36341C62.3259 5.54692 62.2174 5.71378 62.0787 5.85366C61.7881 6.12368 61.4061 6.27376 61.0094 6.27376C60.6127 6.27376 60.2307 6.12368 59.9401 5.85366Z" fill="#03449E"/>
<path d="M76.2658 14.8827C76.3451 15.2806 76.3812 15.6859 76.3735 16.0915C76.3815 16.5069 76.3454 16.9219 76.2658 17.3296C76.1924 17.6428 76.0995 17.819 75.9869 17.819H69.9822V3.14252H73.8972V14.4276H75.9722C76.0962 14.4276 76.1941 14.5793 76.2658 14.8827Z" fill="#03449E"/>
<path d="M96.4087 7.61542V12.9594C96.4087 14.5907 95.9927 15.8027 95.1608 16.5955C94.3288 17.3981 93.0418 17.7945 91.2996 17.7945C89.7238 17.7945 88.5558 17.4683 87.7956 16.8158C86.9702 17.4683 85.7631 17.7945 84.1742 17.7945C82.5854 17.7945 81.4108 17.4601 80.6507 16.7913C79.8253 17.4634 78.6246 17.7978 77.0488 17.7945H75.9869C75.8694 17.7945 75.7765 17.6428 75.7031 17.3051C75.6235 16.8974 75.5874 16.4824 75.5954 16.067C75.5877 15.6614 75.6238 15.2561 75.7031 14.8582C75.7765 14.5548 75.8694 14.4031 75.9869 14.4031H76.5644C77.0194 14.4552 77.4783 14.3461 77.8612 14.0948C78.124 13.7594 78.2437 13.3337 78.194 12.9105V9.54847H82.109V12.9741C82.1097 13.3224 82.0901 13.6705 82.0503 14.0165C82.1864 14.1848 82.3766 14.3007 82.5886 14.3444C82.9257 14.4203 83.271 14.4532 83.6163 14.4423C83.9894 14.4586 84.3627 14.4156 84.7223 14.315C84.8299 14.2809 84.9291 14.2245 85.0135 14.1495C85.0978 14.0744 85.1653 13.9824 85.2117 13.8795C85.3256 13.5833 85.3756 13.2665 85.3585 12.9497V8.58439H89.2735V12.9594C89.2794 13.3281 89.2532 13.6965 89.1952 14.0605C89.3431 14.2145 89.5373 14.3159 89.7482 14.3493C90.0708 14.4096 90.3989 14.4359 90.727 14.4276C91.0985 14.4443 91.4702 14.4013 91.8281 14.3003C91.9396 14.2681 92.0431 14.2127 92.1317 14.1376C92.2202 14.0625 92.2919 13.9696 92.3419 13.8648C92.4559 13.5687 92.5059 13.2518 92.4888 12.935V7.61542H96.4087ZM86.6798 3.63677C86.8203 3.77701 86.931 3.9443 87.005 4.12851C87.079 4.31272 87.1149 4.51003 87.1105 4.70851C87.1105 5.10372 86.9535 5.48275 86.674 5.76221C86.3946 6.04167 86.0155 6.19867 85.6203 6.19867C85.2251 6.19867 84.8461 6.04167 84.5666 5.76221C84.2872 5.48275 84.1302 5.10372 84.1302 4.70851C84.1373 4.41467 84.2293 4.12918 84.3952 3.88652C84.561 3.64386 84.7936 3.45441 85.0648 3.34107C85.336 3.22773 85.6342 3.19534 85.9234 3.24781C86.2126 3.30029 86.4804 3.43538 86.6945 3.63677H86.6798ZM88.3095 0.421547C88.4361 0.550764 88.5359 0.703783 88.6031 0.871772C88.6703 1.03976 88.7036 1.21939 88.701 1.40031C88.7053 1.58584 88.6729 1.77041 88.6058 1.94341C88.5386 2.11641 88.4379 2.27444 88.3095 2.40843C88.1143 2.62112 87.8586 2.76878 87.5768 2.83144C87.2951 2.8941 87.0009 2.86873 86.734 2.75878C86.4671 2.64882 86.2404 2.45958 86.0846 2.21663C85.9287 1.97367 85.8512 1.68873 85.8626 1.40031C85.8555 1.21401 85.8871 1.02827 85.9553 0.854766C86.0235 0.681266 86.1269 0.523767 86.259 0.392184C86.5379 0.139771 86.9007 0 87.2769 0C87.6531 0 88.0158 0.139771 88.2948 0.392184L88.3095 0.421547ZM90.1055 3.63677C90.246 3.77701 90.3566 3.9443 90.4306 4.12851C90.5047 4.31272 90.5405 4.51003 90.5361 4.70851C90.5299 5.00276 90.4386 5.28891 90.2731 5.53229C90.1076 5.77567 89.8751 5.96585 89.6037 6.07978C89.3323 6.19372 89.0337 6.22653 88.7441 6.17423C88.4544 6.12194 88.1862 5.98679 87.9718 5.78514C87.8333 5.6431 87.7251 5.47446 87.6536 5.28942C87.5821 5.10438 87.5488 4.90676 87.5558 4.70851C87.5495 4.51107 87.5831 4.31439 87.6545 4.13023C87.726 3.94607 87.8339 3.77824 87.9718 3.63677C88.2656 3.36923 88.6486 3.22095 89.046 3.22095C89.4433 3.22095 89.8264 3.36923 90.1202 3.63677H90.1055Z" fill="#03449E"/>
<path d="M20.5549 5.59429V17.7798H5.59458C3.82302 17.7798 2.44787 17.2578 1.46911 16.2138C0.49035 15.1666 0.000971219 13.7278 0.000971219 11.8828C-0.0154501 10.8366 0.179842 9.79785 0.575108 8.82903C0.970374 7.86021 1.55745 6.98131 2.30105 6.24517L5.89799 8.72632C5.1373 9.59642 4.70909 10.7077 4.68922 11.8632C4.68922 13.1063 5.2308 13.7278 6.31396 13.7278H15.8813V5.59429H20.5549ZM7.34166 3.45081C7.17874 3.28252 7.05143 3.0831 6.96735 2.86447C6.88326 2.64585 6.84413 2.41252 6.85228 2.17843C6.84335 1.9421 6.88332 1.70648 6.96968 1.48632C7.05605 1.26615 7.18694 1.0662 7.35417 0.89897C7.52139 0.731743 7.72135 0.60085 7.94151 0.514488C8.16167 0.428127 8.3973 0.388158 8.63362 0.397086C8.86931 0.387883 9.10441 0.426499 9.32477 0.510606C9.54513 0.594712 9.74618 0.722568 9.9158 0.886465C10.0799 1.05592 10.2079 1.25693 10.2921 1.47733C10.3762 1.69773 10.4147 1.93292 10.4052 2.16864C10.4147 2.40436 10.3762 2.63954 10.2921 2.85994C10.2079 3.08034 10.0799 3.28136 9.9158 3.45081C9.74618 3.61471 9.54513 3.74256 9.32477 3.82667C9.10441 3.91078 8.86931 3.94939 8.63362 3.94019C8.39628 3.95102 8.15924 3.9132 7.93706 3.82904C7.71488 3.74488 7.51226 3.61617 7.34166 3.45081ZM11.4524 3.45081C11.2876 3.28187 11.1591 3.08093 11.075 2.86041C10.9908 2.63988 10.9527 2.40445 10.9631 2.16864C10.9504 1.92653 10.9871 1.68437 11.071 1.45691C11.1549 1.22946 11.2843 1.02147 11.4512 0.845605C11.6181 0.669744 11.819 0.529698 12.0418 0.433996C12.2645 0.338294 12.5044 0.28894 12.7469 0.28894C12.9893 0.28894 13.2292 0.338294 13.452 0.433996C13.6747 0.529698 13.8756 0.669744 14.0425 0.845605C14.2094 1.02147 14.3388 1.22946 14.4227 1.45691C14.5066 1.68437 14.5433 1.92653 14.5306 2.16864C14.5245 2.52132 14.4157 2.86458 14.2177 3.15646C14.0196 3.44834 13.7408 3.6762 13.4153 3.8122C13.0899 3.9482 12.7318 3.98645 12.385 3.92227C12.0381 3.85809 11.7175 3.69426 11.4622 3.45081H11.4524Z" fill="#F5F7FA"/>
<path d="M38.8283 14.2857C38.9241 14.769 38.9668 15.2613 38.9556 15.7538C38.9647 16.2463 38.922 16.7384 38.8283 17.222C38.7468 17.5939 38.6342 17.7799 38.4906 17.7799H36.4255C36.3584 18.5538 36.1347 19.306 35.7679 19.9908C35.4011 20.6756 34.8989 21.2787 34.2918 21.7634C32.9427 22.7778 31.2853 23.2963 29.5986 23.2316C29.3895 23.2362 29.1803 23.228 28.9722 23.2071L28.385 19.111C28.7617 19.1573 29.1408 19.1818 29.5203 19.1844C30.0434 19.2166 30.5652 19.1031 31.0276 18.8565C31.2096 18.7313 31.3636 18.5696 31.4799 18.3817C31.5961 18.1939 31.6721 17.9839 31.703 17.7652H29.8531C28.6457 17.7814 27.4516 17.5114 26.3687 16.9773C25.3539 16.4862 24.4888 15.7326 23.8631 14.7947C23.2412 13.8607 22.917 12.7601 22.9333 11.6382C22.9236 10.4942 23.2467 9.37202 23.8631 8.40826C24.4861 7.42991 25.353 6.6305 26.3785 6.0886C27.4474 5.52011 28.6425 5.2306 29.8531 5.24687C31.0663 5.25441 32.2689 5.47471 33.406 5.89774C34.5312 6.28084 35.5667 6.88854 36.4499 7.68397L36.494 7.70844V13.7278H38.4906C38.6309 13.7278 38.7435 13.9138 38.8283 14.2857ZM28.2284 13.2091C28.6867 13.5777 29.2659 13.7626 29.8531 13.7278H31.8106V9.72469C31.1953 9.44492 30.5289 9.29499 29.8531 9.28425C29.5541 9.27512 29.2566 9.32926 28.9799 9.44311C28.7033 9.55696 28.4539 9.72796 28.2479 9.94491C27.8224 10.4096 27.5974 11.0233 27.6215 11.6528C27.6016 11.9409 27.6457 12.2299 27.7506 12.4989C27.8555 12.768 28.0187 13.0105 28.2284 13.2091Z" fill="#F5F7FA"/>
<path d="M45.665 5.5943V17.7798H38.4907C38.3536 17.7798 38.2411 17.5939 38.153 17.222C38.0593 16.7384 38.0166 16.2463 38.0257 15.7538C38.0145 15.2613 38.0572 14.769 38.153 14.2857C38.2411 13.9235 38.3536 13.7425 38.4907 13.7425H40.9767V5.5943H45.665ZM41.6716 23.4664C41.2716 23.0933 41.0143 22.5922 40.9442 22.0497C40.8742 21.5071 40.9956 20.9571 41.2877 20.4946C41.5798 20.032 42.0241 19.6859 42.5441 19.5159C43.0641 19.346 43.6271 19.3628 44.1359 19.5636C44.6448 19.7643 45.0677 20.1364 45.3316 20.6156C45.5954 21.0948 45.6838 21.6511 45.5814 22.1884C45.479 22.7258 45.1922 23.2106 44.7706 23.5592C44.349 23.9077 43.8189 24.0982 43.2719 24.0977C42.9762 24.1073 42.6817 24.0562 42.4065 23.9476C42.1312 23.839 41.8812 23.6753 41.6716 23.4664Z" fill="#F5F7FA"/>
</symbol>
<symbol id="chatbot-icon"  viewBox="0 0 90 78">
<path d="M90 42.6223C90 52.6835 86.0252 61.6735 79.7847 67.6639C83.3354 61.6445 85.4089 52.6509 85.4089 39.1622C85.4089 30.7504 82.8533 22.9276 78.4833 16.437C85.4597 22.3857 90 31.8832 90 42.6223ZM11.5167 16.4352C4.54033 22.3875 0 31.8832 0 42.6205C0 52.9137 4.16333 62.0814 10.6539 68.0662C6.8549 62.0487 4.59108 52.9499 4.59108 39.1604C4.59108 30.7467 7.14671 22.924 11.5167 16.4352ZM73.4645 13.0077C66.4066 5.23935 56.2838 0.336517 44.9973 0.336517C33.7108 0.336517 23.588 5.23935 16.5301 13.0077C10.2588 19.9116 6.39996 29.0702 6.39996 39.1586C6.40358 57.5773 10.3204 67.2488 16.7186 72.3365C17.8822 73.2627 19.1219 74.0457 20.4414 74.691C19.9285 74.2741 19.4373 73.8318 18.9661 73.3678C15.1 69.5743 12.6767 64.3307 12.6314 58.556C12.3903 52.5947 12.2779 48.5981 12.1456 43.9708C12.0767 41.5293 12.0024 38.9248 11.9009 35.7257C11.9009 23.6743 24.4471 14.6698 35.6647 14.6698H43.1431H46.8533H54.3317C67.9327 14.6698 78.0955 25.7859 78.0955 35.7837C77.9958 38.9193 77.9215 41.5203 77.8526 43.9581C77.7203 48.5891 77.6079 52.5893 77.3686 58.498C77.3215 64.3071 74.8928 69.5706 71.0176 73.3733C70.5083 73.8735 69.9718 74.343 69.4154 74.7906C70.8672 74.0947 72.232 73.2482 73.4971 72.2151C79.7684 67.0929 83.5946 57.425 83.5946 39.1604C83.5946 29.072 79.7358 19.9098 73.4645 13.0077ZM66.3015 74.778C63.338 76.5977 59.8635 77.6635 56.1388 77.6635C53.1699 77.6635 50.694 77.6635 48.383 77.6635C43.7612 77.6635 39.8008 77.6635 33.8612 77.6635C30.1365 77.6635 26.6602 76.5977 23.6967 74.778C18.203 71.4049 14.4982 65.3982 14.442 58.4835C14.0741 49.3648 14.0034 44.7774 13.7152 35.7257C13.7152 25.0972 25.0398 16.4823 35.6665 16.4823C39.1809 16.4823 41.8671 16.4823 44.5061 16.4823C44.8342 16.4823 45.1658 16.4823 45.4939 16.4823C48.1329 16.4823 50.8172 16.4823 54.3335 16.4823C64.962 16.4823 76.2848 25.0972 76.2848 35.7257C75.9966 44.7774 75.9241 49.3648 75.5561 58.4835C75.5 65.3982 71.7952 71.4049 66.3015 74.778ZM36.7558 44.5236C36.7558 41.9208 35.3729 39.6552 33.3121 38.3774C32.2028 37.6886 30.9069 37.2736 29.5058 37.2736C25.502 37.2736 22.2558 40.5198 22.2558 44.5236C22.2558 48.5274 25.502 51.7736 29.5058 51.7736C31.1497 51.7736 32.6487 51.2045 33.8649 50.2819C35.6103 48.9588 36.7558 46.8835 36.7558 44.5236ZM67.7424 44.5236C67.7424 40.5198 64.4962 37.2736 60.4924 37.2736C59.0913 37.2736 57.7954 37.6886 56.6861 38.3774C54.6253 39.6552 53.2424 41.9208 53.2424 44.5236C53.2424 46.8817 54.3879 48.9588 56.1333 50.2819C57.3495 51.2045 58.8485 51.7736 60.4924 51.7736C64.4962 51.7736 67.7424 48.5274 67.7424 44.5236Z" fill="url(#paint0_linear)"/>
<defs>
<linearGradient id="paint0_linear" x1="45" y1="0.336517" x2="45" y2="77.6635" gradientUnits="userSpaceOnUse">
<stop stop-color="#0552B5"/>
<stop offset="1" stop-color="#2186EB"/>
</linearGradient>
</symbol>
</defs>
</svg>
